<svg width="128" height="128" viewBox="0 0 128 128" fill="none" xmlns="http://www.w3.org/2000/svg">
<circle cx="64" cy="64" r="64" fill="#C9D1D4"/>
<path fill-rule="evenodd" clip-rule="evenodd" d="M94.3132 41.0956C83.3737 25.817 59.4408 21.6171 43.6258 32.9407L40.0796 27.9879C58.6306 14.7053 86.3684 19.536 99.2661 37.5494C107.955 49.685 108.254 62.189 105.504 73.5086L111.378 67.6335C112.435 66.5761 114.15 66.576 115.207 67.6332C116.264 68.6904 116.264 70.4046 115.207 71.462L103.852 82.8187C103.814 82.8624 103.774 82.9051 103.732 82.9468C103.359 83.3198 102.905 83.5613 102.426 83.6711C101.544 83.8769 100.58 83.6364 99.8931 82.9495C99.8403 82.8966 99.7901 82.8422 99.7425 82.7862L88.4162 71.4618C87.3589 70.4046 87.3587 68.6904 88.4159 67.633C89.4731 66.5756 91.1873 66.5755 92.2447 67.6327L98.9794 74.3663C102.089 63.4932 102.197 52.1062 94.3132 41.0956Z" fill="#081831"/>
<path fill-rule="evenodd" clip-rule="evenodd" d="M16.619 60.3715C15.5618 61.4289 13.8476 61.429 12.7902 60.3718C11.7328 59.3146 11.7327 57.6004 12.7899 56.543L24.1496 45.1814C24.1867 45.1394 24.2254 45.0983 24.2655 45.0582C24.6296 44.6941 25.0715 44.4553 25.5378 44.342C26.428 44.122 27.4082 44.3598 28.104 45.0555C28.1556 45.1071 28.2047 45.1603 28.2513 45.2149L39.5815 56.5432C40.6389 57.6004 40.639 59.3146 39.5818 60.372C38.5246 61.4294 36.8104 61.4295 35.753 60.3723L29.0172 53.6376C25.9068 64.5114 25.7986 75.8992 33.6827 86.9105C44.6223 102.189 68.5552 106.389 84.3701 95.0654L87.9164 100.018C69.3654 113.301 41.6275 108.47 28.7299 90.4568C20.0407 78.3211 19.7425 65.8171 22.4919 54.4976L16.619 60.3715Z" fill="#081831"/>
<path d="M61.7139 56.1247L50.0294 56.8145L50.893 66.914L61.6631 66.4214L61.7139 56.1247ZM78.5294 55.1887L65.6765 55.9277L65.5749 66.2736L77.4118 65.7317L78.5294 55.1887ZM65.5749 69.7222L65.4733 86.4727C65.4733 87.4909 65.033 88 64.1524 88C63.9153 88 63.5597 87.9179 63.0856 87.7537C62.6453 87.6223 62.2219 87.3924 61.8155 87.0639C61.443 86.7355 61.2567 86.2757 61.2567 85.6845C61.2567 85.586 61.2567 85.5038 61.2567 85.4382C61.2906 85.4053 61.3075 85.3725 61.3075 85.3396C61.4768 84.2886 61.5615 83.2704 61.5615 82.2851L61.6123 69.87L51.1979 70.3134L51.2995 71.4958V71.6436C51.2995 72.4647 50.8761 72.8753 50.0294 72.8753C49.5891 72.8753 48.9964 72.711 48.2513 72.3826C47.5401 72.0542 47.1845 71.4794 47.1845 70.6583V70.2641C47.2184 69.9686 47.2353 69.7222 47.2353 69.5252C47.2692 69.2952 47.2861 69.0653 47.2861 68.8354C47.2861 68.5727 47.2692 68.3428 47.2353 68.1457C47.2353 67.9486 47.2184 67.7351 47.1845 67.5052L46.2701 56.7159C46.2362 56.2561 46.1515 55.8127 46.016 55.3857C45.8806 54.9259 45.6774 54.4825 45.4064 54.0556C45.1355 53.6286 45 53.2837 45 53.021C45 52.5611 45.2879 52.3312 45.8636 52.3312C46.2023 52.3312 46.6595 52.4133 47.2353 52.5776C47.8111 52.7418 48.5561 53.0045 49.4706 53.3658L61.7139 52.6268L61.7647 44.4486C61.7647 44.0217 61.7139 43.6604 61.6123 43.3648C61.5107 43.0692 61.3922 42.7736 61.2567 42.478C61.0873 42.2152 61.0027 41.9525 61.0027 41.6897C61.0027 41.2299 61.3244 41 61.9679 41C62.0695 41 62.4082 41.0493 62.984 41.1478C63.5936 41.2463 64.2032 41.4598 64.8128 41.7883C65.4225 42.0839 65.7273 42.5765 65.7273 43.2662L65.6765 52.4298L79.0374 51.6415C79.3084 51.6087 79.5285 51.5922 79.6979 51.5922C79.9011 51.5922 80.0704 51.5922 80.2059 51.5922C80.9848 51.5922 81.5775 51.7565 81.984 52.0849C82.3904 52.4133 82.6613 52.7582 82.7968 53.1195C82.9323 53.4808 83 53.7271 83 53.8585C83 54.1869 82.9323 54.4661 82.7968 54.696C82.6613 54.8931 82.5766 55.0901 82.5428 55.2872L81.1203 65.7809C81.5945 66.2736 81.9501 66.717 82.1872 67.1111C82.4242 67.5052 82.5428 67.8337 82.5428 68.0964C82.5428 68.5563 82.3226 68.8354 81.8824 68.934C81.4759 68.9996 81.0187 69.0489 80.5107 69.0818L65.5749 69.7222Z" fill="#0A1A33"/>
<path d="M93.0317 92.2541L94.2383 92.2541L94.2383 102.995L93.0317 102.995L93.0317 92.2541ZM96.8087 97.2362L97.9978 97.2362L97.9978 102.267L96.8087 102.267L96.8087 97.2362ZM97.3333 97.2362L103.296 97.2362L103.296 101.668L97.3333 101.668L97.3333 100.908L102.125 100.908L102.125 98.0126L97.3333 98.0126L97.3333 97.2362ZM93.6612 92.2541L99.1869 92.2541L99.1869 96.4112L93.6612 96.4112L93.6612 95.6186L97.9803 95.6186L97.9803 93.0467L93.6612 93.0467L93.6612 92.2541ZM93.6962 93.9526L98.4175 93.9526L98.4175 94.6966L93.6962 94.6966L93.6962 93.9526ZM97.3508 99.064L102.684 99.064L102.684 99.8242L97.3508 99.8242L97.3508 99.064ZM101.373 93.9526L106.251 93.9526L106.251 94.6966L101.373 94.6966L101.373 93.9526ZM106.094 92.2541L106.094 93.0467L101.862 93.0467L101.862 95.6186L106.094 95.6186L106.094 96.4112L100.656 96.4112L100.656 92.2541L106.094 92.2541ZM105.779 92.2541L107.021 92.2541L107.021 101.604C107.021 101.949 106.968 102.213 106.863 102.396C106.77 102.579 106.601 102.72 106.356 102.817C106.1 102.903 105.75 102.957 105.307 102.978C104.864 103 104.31 103.005 103.646 102.995C103.623 102.844 103.57 102.66 103.489 102.445C103.407 102.24 103.325 102.062 103.244 101.911C103.733 101.922 104.182 101.927 104.59 101.927C105.01 101.938 105.29 101.938 105.43 101.927C105.663 101.916 105.779 101.808 105.779 101.604L105.779 92.2541ZM94.3781 89.197L99.9213 89.197L99.9213 90.1837L94.3781 90.1837L94.3781 89.197ZM101.583 89.2132L108 89.2132L108 90.1837L101.583 90.1837L101.583 89.2132ZM94.7104 88L95.882 88.3235C95.5322 89.046 95.0893 89.7416 94.553 90.4101C94.0284 91.0787 93.4863 91.6449 92.9268 92.1086C92.8685 92.0439 92.7811 91.963 92.6645 91.8659C92.5479 91.7581 92.4313 91.6503 92.3148 91.5424C92.1982 91.4346 92.0933 91.3591 92 91.316C92.5479 90.8954 93.0608 90.394 93.5388 89.8116C94.0168 89.2293 94.4073 88.6254 94.7104 88ZM101.915 88.0162L103.121 88.2912C102.853 89.0137 102.492 89.7092 102.037 90.3778C101.583 91.0356 101.093 91.5855 100.568 92.0277C100.498 91.963 100.399 91.8875 100.271 91.8012C100.154 91.715 100.032 91.6287 99.9038 91.5424C99.7756 91.4454 99.659 91.3699 99.5541 91.316C100.067 90.917 100.528 90.4263 100.936 89.844C101.355 89.2617 101.682 88.6524 101.915 88.0162ZM95.5497 90.6689L96.3891 90.0543C96.6572 90.2699 96.9486 90.518 97.2634 90.7983C97.5781 91.0679 97.823 91.3052 97.9978 91.5101L97.1235 92.2056C96.9603 92.0007 96.7271 91.7527 96.424 91.4615C96.1209 91.1596 95.8295 90.8954 95.5497 90.6689ZM103.191 90.7498L104.048 90.119C104.34 90.3239 104.648 90.5611 104.975 90.8307C105.313 91.1003 105.575 91.3321 105.762 91.5262L104.87 92.2541C104.695 92.0492 104.444 91.8066 104.118 91.5262C103.792 91.2351 103.483 90.9763 103.191 90.7498Z" fill="#081831" fill-opacity="0.7"/>
<path d="M30.8332 34.7249L31.6771 34.2395C32.0789 34.4768 32.498 34.7519 32.9343 35.0647C33.3706 35.3668 33.7897 35.6688 34.1916 35.9709C34.605 36.2729 34.9437 36.5372 35.2078 36.7638L34.3122 37.3463C34.071 37.1197 33.7496 36.8554 33.3477 36.5534C32.9573 36.2406 32.5382 35.9223 32.0904 35.5987C31.6541 35.2751 31.235 34.9838 30.8332 34.7249ZM30.2992 37.6861L31.2293 37.055C31.7115 37.206 32.2167 37.384 32.7449 37.589C33.2845 37.794 33.7955 38.0097 34.2777 38.2362C34.7714 38.4628 35.1848 38.6731 35.5178 38.8673L34.5361 39.5793C34.2375 39.3851 33.8471 39.1694 33.3649 38.932C32.8827 38.7055 32.3717 38.4844 31.8321 38.2686C31.3039 38.0421 30.793 37.8479 30.2992 37.6861ZM24.4952 37.1359L25.6491 37.5566C25.2702 37.8263 24.8339 38.096 24.3402 38.3657C23.8464 38.6246 23.3355 38.8673 22.8073 39.0939C22.2792 39.3204 21.774 39.52 21.2917 39.6926C21.2228 39.617 21.131 39.5254 21.0161 39.4175C20.9128 39.3096 20.798 39.2017 20.6717 39.0939C20.5454 38.9968 20.4363 38.9213 20.3445 38.8673C21.0793 38.6624 21.8256 38.4088 22.5834 38.1068C23.3527 37.8047 23.99 37.4811 24.4952 37.1359ZM30.282 25.0324L31.4015 25.2427C31.1604 26.0302 30.8274 26.7745 30.4026 27.4757C29.9778 28.1661 29.4955 28.7487 28.9559 29.2233C28.9099 29.1586 28.8353 29.0777 28.732 28.9806C28.6286 28.8835 28.5196 28.7918 28.4047 28.7055C28.2899 28.6084 28.1923 28.5329 28.1119 28.479C28.6172 28.0583 29.0535 27.5512 29.4209 26.9579C29.7883 26.3646 30.0754 25.7228 30.282 25.0324ZM33.5199 26.7961L34.6394 26.9579C34.3524 27.9072 33.939 28.7325 33.3994 29.4337C32.8597 30.1348 32.211 30.7389 31.4532 31.246C30.6954 31.753 29.8572 32.1791 28.9386 32.5243C28.8927 32.4488 28.8238 32.3625 28.732 32.2654C28.6516 32.1575 28.5597 32.055 28.4564 31.9579C28.3645 31.8501 28.2784 31.7638 28.1981 31.699C29.5529 31.2567 30.6896 30.6419 31.6082 29.8544C32.5267 29.0561 33.164 28.0367 33.5199 26.7961ZM30.1787 26.3754L35.7417 26.3754L35.7417 27.2816L29.6276 27.2816L30.1787 26.3754ZM22.2906 25L23.3585 25.2427C23.0829 25.8252 22.7269 26.3808 22.2906 26.9094C21.8658 27.4272 21.418 27.8695 20.9473 28.2362C20.8898 28.1823 20.798 28.1176 20.6717 28.0421C20.5569 27.9666 20.4363 27.8964 20.31 27.8317C20.1952 27.7562 20.0919 27.6969 20 27.6537C20.4937 27.3301 20.9358 26.9364 21.3262 26.4725C21.728 26.0086 22.0495 25.5178 22.2906 25ZM22.2562 25.8576L28.3186 25.8576L28.3186 26.6343L21.8428 26.6343L22.2562 25.8576ZM30.4026 27.1683C30.8733 28.301 31.5852 29.2826 32.5382 30.1133C33.5027 30.9331 34.6566 31.5156 36 31.8608C35.8737 31.9687 35.7359 32.1143 35.5867 32.2977C35.4374 32.4703 35.3226 32.6321 35.2422 32.7832C33.8644 32.3517 32.6817 31.6721 31.6943 30.7443C30.7069 29.8166 29.9605 28.7055 29.4553 27.411L30.4026 27.1683ZM21.8084 27.2816L22.7901 27.2816C22.7442 27.7778 22.681 28.3118 22.6006 28.8835C22.5318 29.4552 22.4629 30.0054 22.394 30.534C22.3251 31.0626 22.2562 31.521 22.1873 31.9094L21.2056 31.9094C21.286 31.5102 21.3606 31.0464 21.4295 30.5178C21.5099 29.9784 21.5788 29.4283 21.6362 28.8673C21.7051 28.2956 21.7625 27.767 21.8084 27.2816ZM22.1184 27.2816L27.0441 27.2816L27.0441 27.9935L22.1184 27.9935L22.1184 27.2816ZM21.6878 31.1812L28.2153 31.1812L28.2153 31.9094L21.6878 31.9094L21.6878 31.1812ZM23.7374 28.3172L24.1679 27.8803C24.4435 28.0097 24.7363 28.1553 25.0463 28.3172C25.3563 28.479 25.6089 28.6246 25.8041 28.754L25.3735 29.2557C25.1783 29.1262 24.9257 28.9752 24.6157 28.8026C24.3172 28.6192 24.0244 28.4574 23.7374 28.3172ZM23.4618 30.1942L23.9096 29.7735C24.1851 29.9137 24.4837 30.0755 24.8052 30.2589C25.1381 30.4423 25.408 30.6041 25.6146 30.7443L25.1496 31.246C24.9659 31.0949 24.7076 30.9223 24.3746 30.7282C24.0531 30.5232 23.7488 30.3452 23.4618 30.1942ZM20.2067 29.1748L21.9978 29.1748L21.9978 29.2395L26.8202 29.2395L26.8202 29.1748L28.6803 29.1748L28.6803 29.9191L26.8202 29.9191L26.8202 29.8705L21.9978 29.8705L21.9978 29.9191L20.2067 29.9191L20.2067 29.1748ZM21.5845 37.1359C21.5845 37.0496 21.5673 36.9525 21.5328 36.8447C21.4984 36.726 21.4582 36.6019 21.4123 36.4725C21.3778 36.343 21.3434 36.2352 21.3089 36.1489C21.5845 36.1273 21.906 36.0734 22.2734 35.9871C22.6523 35.89 23.0829 35.7713 23.5651 35.6311C23.8292 35.5556 24.2253 35.4315 24.7535 35.2589C25.2931 35.0863 25.9132 34.8759 26.6136 34.6278C27.314 34.3689 28.0316 34.0885 28.7664 33.7864C29.5127 33.4736 30.2246 33.1499 30.902 32.8155L31.6082 33.5761C30.1155 34.2665 28.5884 34.8652 27.0269 35.3722C25.4769 35.8792 23.9211 36.3161 22.3595 36.6828L22.3595 36.7152C22.3595 36.7152 22.3193 36.7314 22.239 36.7638C22.1701 36.7853 22.084 36.8177 21.9806 36.8608C21.8773 36.8932 21.7854 36.9364 21.7051 36.9903C21.6247 37.0334 21.5845 37.082 21.5845 37.1359ZM21.5845 37.1359L21.5845 36.4239L22.3423 36.0518L33.1238 35.4693C33.1468 35.5987 33.1755 35.7389 33.2099 35.89C33.2558 36.041 33.3018 36.165 33.3477 36.2621C31.6369 36.37 30.1672 36.4617 28.9386 36.5372C27.7101 36.6019 26.6767 36.6613 25.8385 36.7152C25.0118 36.7691 24.3402 36.8177 23.8235 36.8608C23.3068 36.8932 22.8992 36.9256 22.6006 36.9579C22.3136 36.9903 22.0954 37.0227 21.9462 37.055C21.7969 37.0766 21.6764 37.1036 21.5845 37.1359ZM22.7212 34.9353C22.6982 34.8382 22.6523 34.6872 22.5834 34.4822C22.526 34.2772 22.4686 34.1046 22.4112 33.9644C22.6064 33.9536 22.8131 33.932 23.0312 33.8997C23.2609 33.8565 23.5077 33.7972 23.7718 33.7217C23.9785 33.657 24.3 33.5545 24.7363 33.4142C25.1841 33.2632 25.6835 33.0798 26.2347 32.8641C26.7858 32.6375 27.314 32.3948 27.8192 32.1359L28.577 32.8155C27.7503 33.1823 26.9064 33.5059 26.0452 33.7864C25.1956 34.0561 24.3459 34.2826 23.4962 34.466L23.4962 34.4984C23.4962 34.4984 23.456 34.5146 23.3757 34.5469C23.2953 34.5685 23.2034 34.6009 23.1001 34.644C23.0083 34.6764 22.9221 34.7195 22.8418 34.7735C22.7614 34.8274 22.7212 34.8813 22.7212 34.9353ZM22.7212 34.9353L22.7212 34.2557L23.3585 33.9644L28.8353 33.835C28.7894 33.9536 28.7435 34.0939 28.6975 34.2557C28.6516 34.4067 28.6172 34.5307 28.5942 34.6278C27.3541 34.6602 26.361 34.6926 25.6146 34.7249C24.8798 34.7573 24.3172 34.7843 23.9268 34.8058C23.5364 34.8274 23.2551 34.849 23.0829 34.8705C22.9221 34.8921 22.8016 34.9137 22.7212 34.9353ZM27.5092 36.0032L28.7664 36.0032L28.7664 38.7864C28.7664 39.0777 28.7205 39.3042 28.6286 39.466C28.5368 39.6278 28.3588 39.7465 28.0947 39.822C27.8421 39.9083 27.5034 39.9569 27.0786 39.9676C26.6652 39.9892 26.1543 40 25.5457 40C25.5113 39.849 25.4482 39.6764 25.3563 39.4822C25.2759 39.2988 25.1841 39.137 25.0807 38.9968C25.4252 39.0076 25.7409 39.0129 26.028 39.0129C26.315 39.0237 26.5562 39.0237 26.7513 39.0129C26.958 39.0129 27.1015 39.0129 27.1819 39.0129C27.3082 39.0022 27.3943 38.9752 27.4403 38.932C27.4862 38.8997 27.5092 38.8403 27.5092 38.754L27.5092 36.0032ZM26.7686 27.2816L27.7503 27.2816C27.7503 27.2816 27.7503 27.3355 27.7503 27.4434C27.7503 27.5512 27.7445 27.6429 27.733 27.7184C27.6642 28.7972 27.5838 29.6656 27.4919 30.3236C27.4116 30.9817 27.3197 31.4779 27.2164 31.8123C27.1245 32.1359 27.0154 32.3625 26.8891 32.4919C26.7743 32.6214 26.6423 32.7131 26.493 32.767C26.3437 32.8101 26.183 32.8371 26.0108 32.8479C25.873 32.8479 25.6893 32.8479 25.4596 32.8479C25.23 32.8371 24.9946 32.8263 24.7535 32.8155C24.742 32.7292 24.7191 32.6214 24.6846 32.4919C24.6502 32.3517 24.6042 32.2384 24.5468 32.1521C24.7879 32.1629 25.0061 32.1737 25.2013 32.1845C25.3965 32.1953 25.54 32.2006 25.6319 32.2006C25.7352 32.2006 25.8156 32.1953 25.873 32.1845C25.9419 32.1629 26.005 32.1143 26.0624 32.0388C26.1543 31.931 26.2404 31.7206 26.3208 31.4078C26.4011 31.0841 26.4758 30.6041 26.5447 29.9676C26.625 29.3204 26.6997 28.479 26.7686 27.4434L26.7686 27.2816Z" fill="#081831" fill-opacity="0.7"/>
</svg>
