<svg width="16" height="18" viewBox="0 0 16 18" fill="none" xmlns="http://www.w3.org/2000/svg">
<path d="M1.25342 14.1445H14.4102C15.1904 14.1445 15.6636 13.7461 15.6636 13.1401C15.6636 12.3101 14.8169 11.563 14.103 10.8242C13.5552 10.2515 13.4058 9.07275 13.3394 8.11816C13.2812 4.93066 12.4346 2.73926 10.2266 1.94238C9.91113 0.85498 9.05615 0 7.82764 0C6.60742 0 5.74414 0.85498 5.43701 1.94238C3.229 2.73926 2.38232 4.93066 2.32422 8.11816C2.25781 9.07275 2.1084 10.2515 1.56055 10.8242C0.838379 11.563 0 12.3101 0 13.1401C0 13.7461 0.464844 14.1445 1.25342 14.1445ZM7.82764 17.4731C9.23877 17.4731 10.2681 16.4438 10.376 15.2817H5.2876C5.39551 16.4438 6.4248 17.4731 7.82764 17.4731Z" fill="#F2F2F7"/>
</svg>
