<svg width="14" height="17" viewBox="0 0 14 17" fill="none" xmlns="http://www.w3.org/2000/svg">
<path d="M6.15775 5.47065L1.85294 5.72013L2.17112 9.37317L6.13904 9.19497L6.15775 5.47065ZM12.3529 5.13208L7.61765 5.39937L7.58021 9.14151L11.9412 8.94549L12.3529 5.13208ZM7.58021 10.3889L7.54278 16.4476C7.54278 16.8159 7.38057 17 7.05615 17C6.96881 17 6.83779 16.9703 6.6631 16.9109C6.50089 16.8634 6.34492 16.7802 6.19519 16.6614C6.05793 16.5426 5.98931 16.3763 5.98931 16.1625C5.98931 16.1268 5.98931 16.0971 5.98931 16.0734C6.00178 16.0615 6.00802 16.0496 6.00802 16.0377C6.07041 15.6576 6.1016 15.2893 6.1016 14.9329L6.12032 10.4423L2.28342 10.6027L2.32086 11.0304V11.0839C2.32086 11.3809 2.16488 11.5294 1.85294 11.5294C1.69073 11.5294 1.47237 11.47 1.19786 11.3512C0.935829 11.2324 0.804813 11.0245 0.804813 10.7275V10.5849C0.817291 10.478 0.82353 10.3889 0.82353 10.3176C0.836007 10.2345 0.842246 10.1513 0.842246 10.0681C0.842246 9.97309 0.836007 9.88994 0.82353 9.81866C0.82353 9.74738 0.817291 9.67016 0.804813 9.587L0.467915 5.68449C0.455437 5.51817 0.424243 5.35779 0.374332 5.20335C0.324421 5.03704 0.249554 4.87666 0.149733 4.72222C0.049911 4.56779 0 4.44305 0 4.34801C0 4.18169 0.106061 4.09853 0.318182 4.09853C0.442959 4.09853 0.611408 4.12823 0.82353 4.18763C1.03565 4.24703 1.31016 4.34207 1.64706 4.47275L6.15775 4.20545L6.17647 1.24738C6.17647 1.09294 6.15775 0.962265 6.12032 0.855346C6.08289 0.748428 6.03922 0.64151 5.98931 0.534592C5.92692 0.439553 5.89572 0.344514 5.89572 0.249476C5.89572 0.0831586 6.01426 0 6.25134 0C6.28877 0 6.41355 0.0178198 6.62567 0.0534595C6.85027 0.0890984 7.07487 0.166317 7.29947 0.285116C7.52406 0.392034 7.63636 0.570231 7.63636 0.819706L7.61765 4.13417L12.5401 3.84906C12.6399 3.83718 12.721 3.83124 12.7834 3.83124C12.8583 3.83124 12.9207 3.83124 12.9706 3.83124C13.2576 3.83124 13.4759 3.89064 13.6257 4.00943C13.7754 4.12823 13.8752 4.25297 13.9251 4.38365C13.975 4.51433 14 4.60342 14 4.65094C14 4.76974 13.975 4.87072 13.9251 4.95388C13.8752 5.02516 13.844 5.09644 13.8316 5.16771L13.3075 8.96331C13.4822 9.14151 13.6132 9.30189 13.7005 9.44445C13.7879 9.587 13.8316 9.7058 13.8316 9.80084C13.8316 9.96716 13.7504 10.0681 13.5882 10.1038C13.4385 10.1275 13.2701 10.1454 13.0829 10.1572L7.58021 10.3889Z" fill="#F2F2F7"/>
</svg>
