<svg width="8" height="14" viewBox="0 0 8 14" fill="none" xmlns="http://www.w3.org/2000/svg">
<path d="M7.16434 6.99658C7.16434 6.71603 7.0617 6.48337 6.84273 6.26441L1.57383 1.11183C1.39592 0.933919 1.18379 0.851807 0.930611 0.851807C0.417407 0.851807 -1.1643e-09 1.25553 -2.64435e-09 1.76873C-3.3745e-09 2.02191 0.109484 2.25457 0.294237 2.43932L4.97466 6.98974L0.294237 11.5538C0.109484 11.7386 -3.20479e-08 11.9644 -3.27978e-08 12.2244C-3.42778e-08 12.7376 0.417406 13.1482 0.930611 13.1482C1.18379 13.1482 1.39592 13.0592 1.57383 12.8813L6.84273 7.72875C7.06854 7.50978 7.16434 7.27713 7.16434 6.99658Z" fill="#545456"/>
</svg>
