<svg width="25" height="25" viewBox="0 0 25 25" fill="none" xmlns="http://www.w3.org/2000/svg">
<path d="M8.59375 7.8125L8.59375 6.36273C8.59375 5.18046 9.47395 4.17724 10.6522 4.07945C11.041 4.04718 11.4311 4.01936 11.8224 3.99603M16.4062 18.75L18.75 18.75C20.0444 18.75 21.0937 17.7007 21.0937 16.4062L21.0937 6.36273C21.0937 5.18045 20.2135 4.17724 19.0353 4.07945C18.6465 4.04718 18.2564 4.01936 17.8651 3.99603M16.4062 19.5313V17.5781C16.4062 15.6365 14.8323 14.0625 12.8906 14.0625L11.3281 14.0625C10.6809 14.0625 10.1562 13.5378 10.1562 12.8906L10.1562 11.3281C10.1562 9.3865 8.58225 7.8125 6.64062 7.8125L5.46875 7.8125M17.8651 3.99603C17.57 3.03913 16.6787 2.34375 15.625 2.34375L14.0625 2.34375C13.0088 2.34375 12.1175 3.03913 11.8224 3.99603M17.8651 3.99603C17.9325 4.2146 17.9688 4.44681 17.9688 4.6875L17.9687 5.46875L11.7187 5.46875V4.6875C11.7187 4.44681 11.755 4.2146 11.8224 3.99603M7.03125 7.8125L5.07812 7.8125C4.43092 7.8125 3.90625 8.33717 3.90625 8.98438L3.90625 21.4844C3.90625 22.1316 4.43092 22.6562 5.07812 22.6562L15.2344 22.6563C15.8816 22.6563 16.4062 22.1316 16.4062 21.4844L16.4062 17.1875C16.4062 12.0098 12.2089 7.8125 7.03125 7.8125Z" stroke="#F2F2F7" stroke-width="1.5" stroke-linecap="round" stroke-linejoin="round"/>
</svg>
